<?xml version="1.0" standalone="no"?>
<!DOCTYPE svg PUBLIC "-//W3C//DTD SVG 20010904//EN"
 "http://www.w3.org/TR/2001/REC-SVG-20010904/DTD/svg10.dtd">
<svg version="1.0" xmlns="http://www.w3.org/2000/svg"
 width="1024.000000pt" height="1024.000000pt" viewBox="0 0 1024.000000 1024.000000"
 preserveAspectRatio="xMidYMid meet">

<g transform="translate(0.000000,1024.000000) scale(0.100000,-0.100000)"
fill="#000000" stroke="none">
<path d="M6010 8926 c-154 -42 -261 -159 -290 -319 -48 -255 198 -495 461
-448 136 24 237 98 296 219 36 71 38 82 38 166 0 81 -3 98 -31 157 -35 74 -90
140 -146 175 -92 58 -225 79 -328 50z"/>
<path d="M5094 8041 c-162 -74 -177 -309 -25 -416 39 -27 50 -30 119 -30 114
1 178 39 221 135 54 120 -2 265 -121 314 -51 22 -143 20 -194 -3z"/>
<path d="M5755 7626 c-102 -44 -124 -181 -41 -254 87 -76 215 -36 246 77 14
53 6 92 -27 132 -48 57 -113 73 -178 45z"/>
<path d="M4614 7033 c-33 -6 -103 -71 -119 -110 -31 -73 -13 -143 57 -227 62
-73 67 -96 68 -303 0 -338 -48 -596 -205 -1088 -99 -309 -135 -470 -155 -680
-18 -201 -8 -472 21 -562 20 -62 25 -61 191 51 319 215 645 415 1117 682 145
82 278 163 297 180 50 46 47 85 -27 311 -152 471 -233 917 -216 1193 7 118 15
138 76 203 81 86 100 141 77 221 -9 29 -28 63 -43 78 -61 59 -56 58 -610 57
-279 -1 -518 -4 -529 -6z"/>
<path d="M2855 6391 c-60 -19 -109 -72 -477 -518 -723 -877 -1042 -1268 -1065
-1308 -28 -50 -31 -126 -5 -175 10 -19 96 -129 192 -245 95 -115 201 -243 234
-284 34 -41 119 -144 189 -229 71 -85 275 -332 454 -550 179 -219 342 -414
362 -436 20 -21 59 -49 86 -62 49 -23 58 -24 305 -24 245 0 258 1 300 23 35
17 49 32 63 67 29 71 15 105 -105 251 -56 68 -221 270 -367 449 -357 439 -578
709 -759 930 -112 136 -152 192 -152 212 0 29 60 102 983 1208 289 346 400
485 408 513 13 49 4 89 -29 129 -46 55 -66 58 -344 57 -139 -1 -262 -4 -273
-8z"/>
<path d="M6826 6377 c-70 -40 -96 -126 -58 -195 9 -17 65 -89 123 -159 58 -71
237 -288 399 -483 161 -195 335 -404 385 -465 258 -311 432 -523 448 -545 31
-45 22 -70 -61 -170 -43 -52 -177 -216 -298 -365 -351 -430 -575 -704 -769
-939 -99 -120 -193 -236 -209 -259 -60 -83 -41 -184 42 -221 33 -15 69 -17
303 -14 253 3 266 4 307 26 43 23 69 54 1076 1267 133 159 281 337 329 395
105 125 127 164 127 225 0 83 15 62 -485 666 -823 994 -986 1188 -1015 1212
-17 14 -47 31 -68 37 -21 5 -145 10 -287 10 -240 0 -252 -1 -289 -23z"/>
<path d="M5839 4479 c-362 -267 -894 -592 -1316 -803 -84 -42 -139 -75 -149
-92 -28 -43 -32 -105 -13 -261 49 -424 33 -646 -75 -988 -58 -182 -64 -209
-76 -297 -25 -198 54 -354 219 -435 l56 -28 603 -3 c667 -3 678 -2 774 59 108
70 167 173 176 310 6 94 -12 184 -73 379 -91 286 -111 429 -102 730 6 208 15
291 61 570 46 283 67 482 73 696 6 203 1 254 -25 254 -5 0 -64 -41 -133 -91z"/>
</g>
</svg>
